# xmcd CD database file
#
# Track frame offsets:
#	150
#	15794
#	27524
#	38500
#	51064
#	66217
#	76913
#	86701
#	101465
#	119018
#	130718
#	140904
#	153803
#	168018
#	178811
#	202362
#	215428
#	228599
#	239112
#	249846
#
# Disc length: 3468 seconds
#
# Revision: 0
# Processed by: cddbd v1.5.2PL0 Copyright (c) Steve Scherf et al.
# Submitted via: CDex 1.51
#
DISCID=100d8a14
DTITLE=Lowell Fulson - The Jewel Sessions 1969-71 (Disc-2)
DYEAR=1900
DGENRE=Blues
TTITLE0=Man On The Run
TTITLE1=This Feeling
TTITLE2=Trouble Everywhere
TTITLE3=Cheating Woman
TTITLE4=Searchin' Out
TTITLE5=Crying Won't Help (Album Version)
TTITLE6=Stoned To The Bone
TTITLE7=The Last One To Know
TTITLE8=Deep In Love
TTITLE9=Please Let Me Go
TTITLE10=Henpecked
TTITLE11=Hurry Home
TTITLE12=I Started Out Wrong
TTITLE13=Take My Hand
TTITLE14=Lonesome Christmas (Unedited Version)
TTITLE15=Crying Won't Help (Unissued Version)
TTITLE16=Crying Won't Help (Unissued Version Alt. Take)
TTITLE17=Baby
TTITLE18=Stop And Think
TTITLE19=You're Gonna Miss Me
EXTD=
EXTT0=
EXTT1=
EXTT2=
EXTT3=
EXTT4=
EXTT5=
EXTT6=
EXTT7=
EXTT8=
EXTT9=
EXTT10=
EXTT11=
EXTT12=
EXTT13=
EXTT14=
EXTT15=
EXTT16=
EXTT17=
EXTT18=
EXTT19=
PLAYORDER=
